<svg preserveAspectRatio="xMidYMid meet" data-bbox="29.5 30 141 140" viewBox="29.5 30 141 140" height="200" width="200" xmlns="http://www.w3.org/2000/svg" data-type="color" role="presentation" aria-hidden="true" aria-label="">
    <g>
        <path d="M170.5 73.581c0-11.647-4.569-22.596-12.866-30.831-17.127-17-44.992-16.999-62.119 0L50.623 87.306a3.959 3.959 0 0 0-1.172 2.809v54.463l-18.779 18.64a3.954 3.954 0 0 0-.001 5.618A4.001 4.001 0 0 0 33.5 170a4.004 4.004 0 0 0 2.828-1.163l18.78-18.64h54.873c1.062 0 2.081-.42 2.832-1.167l26.152-26.035c.314-.233.592-.508.825-.822l17.843-17.763c8.298-8.234 12.867-19.183 12.867-30.829zm-62.179 68.672H63.112l18.598-18.46h45.154l-18.543 18.46zm43.653-43.457l-17.129 17.053h-45.13l39.722-39.426a3.954 3.954 0 0 0 .001-5.618 4.02 4.02 0 0 0-5.657-.001l-66.328 65.835V91.761l43.72-43.393c14.008-13.905 36.801-13.905 50.807 0 6.786 6.734 10.522 15.688 10.522 25.212 0 9.523-3.736 18.477-10.522 25.211l-.006.005z" fill="#000001" data-color="1"></path>
    </g>
</svg>