<svg preserveAspectRatio="xMidYMid meet" data-bbox="29.5 29.5 141 141" viewBox="29.5 29.5 141 141" height="200" width="200" xmlns="http://www.w3.org/2000/svg" data-type="color" role="presentation" aria-hidden="true" aria-label=""><defs><style>#comp-lydtigou3__item-lo2ihhyj svg [data-color="1"] {fill: #000000;}</style></defs>
    <g>
        <path d="M100 29.5c-38.874 0-70.5 31.626-70.5 70.5 0 38.874 31.626 70.5 70.5 70.5s70.5-31.626 70.5-70.5c0-38.874-31.626-70.5-70.5-70.5zM162.358 96h-31.93a105.684 105.684 0 0 0-21.335-57.831C137.968 42.397 160.48 66.437 162.358 96zm-84.785 8h44.854A97.706 97.706 0 0 1 100 160.416 97.706 97.706 0 0 1 77.573 104zm0-8A97.706 97.706 0 0 1 100 39.584 97.706 97.706 0 0 1 122.427 96H77.573zm13.333-57.831A105.683 105.683 0 0 0 69.572 96h-31.93c1.878-29.563 24.39-53.603 53.264-57.831zM37.642 104h31.93a105.684 105.684 0 0 0 21.335 57.831C62.032 157.603 39.52 133.563 37.642 104zm71.452 57.831A105.692 105.692 0 0 0 130.429 104h31.93c-1.879 29.563-24.391 53.603-53.265 57.831z" fill="#000001" data-color="1"></path>
    </g>
</svg>