<svg preserveAspectRatio="xMidYMid meet" data-bbox="36.5 29.499 127 141.001" viewBox="36.5 29.499 127 141.001" height="200" width="200" xmlns="http://www.w3.org/2000/svg" data-type="color" role="presentation" aria-hidden="true" aria-label="">
    <g>
        <path d="M163.126 85.006a3.966 3.966 0 0 0-3.595-2.306h-55.034l6.056-48.703a4.005 4.005 0 0 0-2.355-4.166 3.947 3.947 0 0 0-4.629 1.104l-66.146 79.8a4.024 4.024 0 0 0-.549 4.259 3.966 3.966 0 0 0 3.595 2.306h55.034l-6.056 48.703a4.005 4.005 0 0 0 2.355 4.166 3.95 3.95 0 0 0 4.628-1.104l66.146-79.8a4.023 4.023 0 0 0 .55-4.259zm-64.123 68.477l4.935-39.686a4.023 4.023 0 0 0-.962-3.145 3.956 3.956 0 0 0-2.976-1.353H48.956l52.041-62.783-4.935 39.686a4.023 4.023 0 0 0 .962 3.145A3.956 3.956 0 0 0 100 90.7h51.044l-52.041 62.783z" fill="#000001" data-color="1"></path>
    </g>
</svg>