<?xml version="1.0" encoding="UTF-8"?>
<svg id="Layer_2" data-name="Layer 2" xmlns="http://www.w3.org/2000/svg" viewBox="0 0 685.83 134.93">
  <defs>
    <style>
      .cls-1 {
        fill: #17124a;
      }

      .cls-2 {
        fill: #30b999;
        fill-rule: evenodd;
      }
    </style>
  </defs>
  <g id="Layer_1-2" data-name="Layer 1">
    <g>
      <g>
        <path class="cls-1" d="m174.62,87.44c-7.84,0-13.99-2.64-18.45-7.94-4.46-5.29-6.69-12.97-6.69-23.04,0-5.04.57-9.47,1.72-13.3,1.15-3.83,2.8-7.06,4.98-9.7,2.17-2.63,4.82-4.62,7.94-5.97,3.12-1.34,6.62-2.02,10.51-2.02,5.21,0,9.57,1.13,13.09,3.4,3.52,2.27,6.28,5.63,8.28,10.07l-8.15,4.46c-1.03-2.86-2.62-5.13-4.76-6.82-2.15-1.69-4.96-2.53-8.45-2.53-4.63,0-8.27,1.58-10.9,4.74-2.63,3.16-3.95,7.52-3.95,13.09v9.13c0,5.57,1.32,9.94,3.95,13.09,2.63,3.16,6.26,4.74,10.9,4.74,3.6,0,6.54-.93,8.8-2.79,2.26-1.86,3.93-4.25,5.02-7.16l7.81,4.72c-2,4.34-4.8,7.73-8.41,10.16-3.6,2.44-8.01,3.65-13.22,3.65Z"/>
        <path class="cls-1" d="m215.38,86.41c-3.21,0-5.59-.81-7.16-2.44-1.57-1.63-2.36-3.91-2.36-6.82V22.91h9.35v55.87h6.18v7.64h-6.01Z"/>
        <path class="cls-1" d="m247.82,87.44c-3.09,0-5.91-.54-8.45-1.63-2.55-1.08-4.71-2.64-6.48-4.68-1.77-2.03-3.15-4.49-4.12-7.38-.97-2.89-1.46-6.11-1.46-9.65s.49-6.76,1.46-9.65c.97-2.89,2.34-5.35,4.12-7.38s3.93-3.59,6.48-4.68,5.36-1.63,8.45-1.63,5.91.54,8.45,1.63c2.55,1.09,4.7,2.65,6.48,4.68,1.77,2.03,3.15,4.49,4.12,7.38.97,2.89,1.46,6.11,1.46,9.65s-.49,6.77-1.46,9.65c-.97,2.89-2.35,5.35-4.12,7.38-1.77,2.03-3.93,3.59-6.48,4.68-2.55,1.09-5.36,1.63-8.45,1.63Zm0-7.81c3.2,0,5.78-.98,7.72-2.94,1.94-1.96,2.92-4.91,2.92-8.83v-7.51c0-3.93-.97-6.87-2.92-8.83-1.95-1.96-4.52-2.94-7.72-2.94s-5.78.98-7.72,2.94c-1.95,1.96-2.92,4.91-2.92,8.83v7.51c0,3.93.97,6.87,2.92,8.83,1.94,1.96,4.52,2.94,7.72,2.94Z"/>
        <path class="cls-1" d="m305.74,79.03h-.34c-.4,1.09-.93,2.15-1.59,3.17-.66,1.03-1.49,1.93-2.49,2.7-1,.77-2.2,1.39-3.61,1.84-1.4.46-3.02.69-4.85.69-4.63,0-8.22-1.49-10.77-4.46-2.55-2.97-3.82-7.24-3.82-12.79v-28.41h9.35v27.2c0,6.92,2.86,10.38,8.58,10.38,1.2,0,2.37-.16,3.52-.47,1.14-.31,2.16-.79,3.05-1.42.89-.63,1.6-1.43,2.15-2.4.54-.97.81-2.12.81-3.43v-29.86h9.35v44.63h-9.35v-7.38Z"/>
        <path class="cls-1" d="m356.55,79.03h-.43c-.97,2.63-2.56,4.69-4.76,6.18-2.2,1.49-4.79,2.23-7.77,2.23-5.66,0-10.04-2.04-13.13-6.14-3.09-4.09-4.63-9.83-4.63-17.21s1.55-13.11,4.63-17.21c3.09-4.09,7.47-6.14,13.13-6.14,2.97,0,5.56.73,7.77,2.19,2.2,1.46,3.79,3.53,4.76,6.22h.43v-26.26h9.35v63.5h-9.35v-7.38Zm-10.13.34c2.86,0,5.26-.7,7.21-2.1,1.95-1.4,2.92-3.25,2.92-5.53v-15.28c0-2.29-.97-4.13-2.92-5.54-1.94-1.4-4.35-2.1-7.21-2.1-3.26,0-5.87,1.04-7.81,3.13-1.95,2.09-2.92,4.85-2.92,8.28v7.72c0,3.43.97,6.19,2.92,8.28,1.94,2.09,4.55,3.13,7.81,3.13Z"/>
        <path class="cls-1" d="m397.91,58.44l-8.24,9.44v18.54h-9.7V26.51h9.7v30.38h.34l8.58-10.9,16.13-19.48h11.33l-21.37,25.23,23.09,34.67h-11.67l-18.19-27.98Z"/>
        <path class="cls-1" d="m440.65,33.81c-1.95,0-3.36-.46-4.25-1.37-.89-.91-1.33-2.09-1.33-3.52v-1.46c0-1.43.44-2.6,1.33-3.52.89-.91,2.3-1.37,4.25-1.37s3.35.46,4.2,1.37c.86.92,1.29,2.09,1.29,3.52v1.46c0,1.43-.43,2.61-1.29,3.52-.86.92-2.26,1.37-4.2,1.37Zm-4.72,7.98h9.35v44.63h-9.35v-44.63Z"/>
        <path class="cls-1" d="m458.67,86.41v-44.63h9.35v7.38h.43c.97-2.4,2.44-4.41,4.42-6.01,1.97-1.6,4.68-2.4,8.11-2.4,4.58,0,8.14,1.5,10.69,4.51,2.55,3,3.82,7.28,3.82,12.83v28.32h-9.35v-27.12c0-6.98-2.8-10.47-8.41-10.47-1.2,0-2.39.16-3.56.47-1.17.32-2.22.79-3.13,1.42-.91.63-1.65,1.43-2.19,2.4-.55.98-.82,2.12-.82,3.43v29.86h-9.35Z"/>
        <path class="cls-1" d="m525.95,87.44c-3.21,0-6.06-.54-8.58-1.63-2.52-1.08-4.66-2.64-6.44-4.68-1.77-2.03-3.13-4.49-4.08-7.38-.94-2.89-1.42-6.11-1.42-9.65s.47-6.76,1.42-9.65c.94-2.89,2.3-5.35,4.08-7.38,1.77-2.03,3.92-3.59,6.44-4.68,2.52-1.09,5.38-1.63,8.58-1.63s6.14.57,8.63,1.72c2.49,1.15,4.56,2.73,6.22,4.76,1.66,2.03,2.9,4.39,3.73,7.08.83,2.69,1.24,5.58,1.24,8.67v3.52h-30.64v1.45c0,3.41,1.02,6.21,3.05,8.4,2.03,2.19,4.93,3.28,8.71,3.28,2.75,0,5.06-.6,6.95-1.79,1.89-1.19,3.49-2.81,4.81-4.86l5.49,5.42c-1.66,2.75-4.06,4.95-7.21,6.59-3.15,1.64-6.81,2.45-10.99,2.45Zm0-39.39c-1.6,0-3.08.29-4.42.86-1.34.57-2.49,1.37-3.43,2.4-.94,1.03-1.68,2.26-2.19,3.69-.51,1.43-.77,3-.77,4.72v.6h20.77v-.86c0-3.43-.89-6.19-2.66-8.28-1.77-2.09-4.21-3.13-7.29-3.13Z"/>
        <path class="cls-1" d="m568.51,86.41c-3.26,0-5.72-.84-7.38-2.53-1.66-1.69-2.49-4.08-2.49-7.16v-27.29h-6.95v-7.64h3.78c1.54,0,2.62-.34,3.22-1.03.6-.69.9-1.8.9-3.35v-7.81h8.41v12.19h9.35v7.64h-9.35v29.35h8.67v7.64h-8.15Z"/>
        <path class="cls-1" d="m592.2,33.81c-1.95,0-3.36-.46-4.25-1.37-.89-.91-1.33-2.09-1.33-3.52v-1.46c0-1.43.44-2.6,1.33-3.52.89-.91,2.3-1.37,4.25-1.37s3.35.46,4.2,1.37c.86.92,1.29,2.09,1.29,3.52v1.46c0,1.43-.43,2.61-1.29,3.52-.86.92-2.26,1.37-4.2,1.37Zm-4.72,7.98h9.35v44.63h-9.35v-44.63Z"/>
        <path class="cls-1" d="m627.47,87.44c-3.21,0-6.06-.54-8.58-1.63-2.52-1.08-4.63-2.64-6.35-4.68-1.72-2.03-3.03-4.49-3.95-7.38-.92-2.89-1.37-6.11-1.37-9.65s.46-6.76,1.37-9.65c.91-2.89,2.23-5.35,3.95-7.38,1.72-2.03,3.83-3.59,6.35-4.68,2.52-1.09,5.38-1.63,8.58-1.63,4.46,0,8.12,1,10.99,3,2.86,2,4.95,4.66,6.26,7.98l-7.72,3.6c-.63-2.06-1.73-3.7-3.3-4.93-1.57-1.23-3.65-1.85-6.22-1.85-3.43,0-6.02,1.07-7.77,3.21-1.75,2.14-2.62,4.92-2.62,8.34v7.96c0,3.42.87,6.21,2.62,8.35,1.74,2.14,4.33,3.21,7.77,3.21,2.75,0,4.93-.67,6.57-2.02,1.63-1.34,2.93-3.13,3.9-5.36l7.12,3.78c-1.49,3.68-3.72,6.5-6.69,8.46-2.98,1.96-6.61,2.95-10.9,2.95Z"/>
        <path class="cls-1" d="m668.15,87.44c-4.23,0-7.78-.74-10.64-2.23-2.86-1.49-5.35-3.55-7.46-6.18l6.01-5.49c1.66,2,3.51,3.56,5.54,4.68,2.03,1.12,4.39,1.67,7.08,1.67s4.79-.53,6.14-1.59,2.02-2.53,2.02-4.42c0-1.43-.47-2.65-1.42-3.65-.94-1-2.59-1.64-4.93-1.93l-4.12-.51c-4.58-.57-8.17-1.9-10.77-3.99s-3.9-5.19-3.9-9.31c0-2.17.4-4.1,1.2-5.79.8-1.69,1.93-3.12,3.39-4.29,1.46-1.17,3.2-2.07,5.23-2.7,2.03-.63,4.28-.94,6.74-.94,4,0,7.28.63,9.83,1.89,2.55,1.26,4.82,3,6.82,5.23l-5.75,5.49c-1.15-1.37-2.65-2.56-4.51-3.56-1.86-1-3.99-1.5-6.39-1.5-2.57,0-4.48.51-5.71,1.55-1.23,1.03-1.85,2.37-1.85,4.03s.54,3,1.63,3.86c1.08.86,2.83,1.49,5.23,1.89l4.12.51c4.92.74,8.51,2.19,10.77,4.34,2.26,2.15,3.39,5.02,3.39,8.62,0,2.18-.42,4.14-1.24,5.88-.83,1.75-2.02,3.25-3.56,4.51-1.54,1.26-3.4,2.23-5.58,2.92-2.18.69-4.61,1.03-7.29,1.03Z"/>
      </g>
      <g>
        <path class="cls-2" d="m50.31,113.38c-10.85-1.01-21.53-7.57-26.41-19.95-6.15-15.4-.36-28.78,8.68-36.36,5.79-5.05,13.39-8.33,20.26-8.33,5.79-6.31,11.58-12.88,17.37-19.19-3.8-1.51-9.23-2.02-14.47-2.02-6.87,0-14.11,1.26-18.99,2.78C19.92,35.87.57,52.28.02,79.04c-.36,13.63,3.44,25,9.41,33.33,10.85,15.65,27.86,21.71,43.05,22.47,19.54,1.01,32.56-6.82,48.12-22.72-2.53-3.28-11.76-12.12-15.2-14.9-12.12,11.61-18.99,17.93-35.09,16.16Z"/>
        <g>
          <polygon class="cls-1" points="123.17 28.24 115.93 21.34 122.62 14.1 129.99 21.11 136.78 14 129.51 7.07 136.05 0 122.24 0 122.21 .03 129.42 7.04 122.54 14.11 115.4 7.16 108.57 14.3 115.79 21.31 108.91 28.38 101.76 21.43 68.48 56.23 118.87 109.66 147.91 109.66 96.41 56.23 123.17 28.24"/>
          <polygon class="cls-1" points="136.38 0 143.6 6.87 150.17 0 136.38 0"/>
        </g>
      </g>
    </g>
  </g>
</svg>