<svg version="1.1" id="Layer_1" xmlns:x="ns_extend;" xmlns:i="ns_ai;" xmlns:graph="ns_graphs;" xmlns="http://www.w3.org/2000/svg" xmlns:xlink="http://www.w3.org/1999/xlink" x="0px" y="0px" viewBox="0 0 90 55.3" style="enable-background:new 0 0 90 55.3;" xml:space="preserve">
 <style type="text/css">
  .st0{fill:#004B96;}
 </style>
 <metadata>
  <sfw xmlns="ns_sfw;">
   <slices>
   </slices>
   <sliceSourceBounds bottomLeftOrigin="true" height="55.3" width="90" x="1155" y="45.3">
   </sliceSourceBounds>
  </sfw>
 </metadata>
 <g>
  <g>
   <path class="st0" d="M0,48.4h4.7c2.7,0,4.2,1.3,4.2,3.4c0,2.3-1.5,3.5-4.6,3.5H0V48.4z M3.9,54.1c2.1,0,3.2-0.5,3.2-2.3
			c0-1.4-0.8-2.1-2.4-2.1h-3v4.4H3.9z">
   </path>
   <path class="st0" d="M12.8,48.4h1.6l4.2,6.9h-1.9l-0.9-1.5h-4.6l-0.9,1.5H8.6L12.8,48.4z M15.1,52.6l-1.6-2.9l-1.6,2.9H15.1z">
   </path>
   <path class="st0" d="M19.6,48.4h1.7v2.8l4-2.8h2.4L23,51.6l5.3,3.7h-2.7l-4.4-3.1v3.1h-1.7V48.4z">
   </path>
   <path class="st0" d="M33.6,55.3h-1.7v-5.7h-3.3v-1.2H37v1.2h-3.4V55.3z">
   </path>
   <path class="st0" d="M38.3,48.4h6.2c1.1,0,1.6,0.4,1.6,1.3v1.6c0,0.9-0.5,1.3-1.6,1.3h-0.9l3.3,2.6h-2.4l-2.9-2.6h-1.6v2.6h-1.7
			V48.4z M39.9,49.6v1.9h3.9c0.5,0,0.8-0.1,0.8-0.6v-0.8c0-0.5-0.3-0.6-0.8-0.6H39.9z">
   </path>
   <path class="st0" d="M49.4,48.4h5.4c1.4,0,1.8,0.3,1.8,1.6v3.7c0,1.3-0.4,1.6-1.8,1.6h-5.4c-1.4,0-1.8-0.3-1.8-1.6v-3.7
			C47.6,48.7,48.1,48.4,49.4,48.4z M54.9,54v-4.3h-5.6V54H54.9z">
   </path>
   <path class="st0" d="M58.2,48.4h1.2l5.9,4.6v-4.6h1.5v6.9h-1.2l-5.9-4.7v4.7h-1.5V48.4z">
   </path>
   <path class="st0" d="M68.9,48.4h1.7v6.9h-1.7V48.4z">
   </path>
   <path class="st0" d="M74.4,49.7V54h4.6v-1.5l1.7,0.3v0.8c0,1.3-0.4,1.6-1.8,1.6h-4.3c-1.4,0-1.8-0.4-1.8-1.6v-3.7
			c0-1.3,0.4-1.6,1.8-1.6h4.3c1.4,0,1.8,0.3,1.8,1.6v0.7L78.9,51v-1.3H74.4z">
   </path>
   <path class="st0" d="M83.7,49.7v1.5h4.5c1.4,0,1.8,0.3,1.8,1.6v0.9c0,1.3-0.4,1.6-1.8,1.6h-4.5c-1.4,0-1.8-0.3-1.8-1.6v-0.2
			l1.5-0.3v0.8h5.1v-1.6H84c-1.4,0-1.8-0.3-1.8-1.6v-0.8c0-1.3,0.5-1.6,1.8-1.6h4.1c1.3,0,1.8,0.3,1.8,1.5v0.2l-1.5,0.3v-0.7H83.7z">
   </path>
  </g>
  <path class="st0" d="M55.4,0H13.8v10.4c5.7,0,10.4,4.6,10.4,10.4c0,5.7-4.6,10.4-10.4,10.4v10.4h41.5c11.5,0,20.8-9.3,20.8-20.8
		C76.1,9.3,66.8,0,55.4,0z M45,31.1c-5.7,0-10.4-4.6-10.4-10.4c0-5.7,4.6-10.4,10.4-10.4c5.7,0,10.4,4.6,10.4,10.4
		C55.4,26.5,50.7,31.1,45,31.1z">
  </path>
  <path class="st0" d="M70.6,38.8c0-1.6,1.3-2.7,2.8-2.7c1.5,0,2.8,1.2,2.8,2.7c0,1.6-1.3,2.7-2.8,2.7C71.9,41.5,70.6,40.4,70.6,38.8
		z M73.4,41.1c1.2,0,2.2-1,2.2-2.3c0-1.3-1-2.3-2.2-2.3c-1.2,0-2.2,1-2.2,2.3C71.1,40.1,72.1,41.1,73.4,41.1z M72.8,40.4h-0.5v-3.1
		h1.2c0.7,0,1.1,0.3,1.1,0.9c0,0.6-0.4,0.8-0.8,0.9l0.9,1.4h-0.5L73.3,39h-0.5V40.4z M73.4,38.6c0.4,0,0.8,0,0.8-0.5
		c0-0.4-0.4-0.5-0.7-0.5h-0.6v1H73.4z">
  </path>
 </g>
</svg>