<svg aria-hidden="true" class="icon icon-logo" version="1.1" xmlns="http://www.w3.org/2000/svg" width="190" height="32" viewBox="0 0 190 32">Logo<path d="M51.363 22.871c3.571 0 6.449-2.847 6.449-6.423 0-3.559-2.878-6.423-6.449-6.423h-4.091c-0.676 0-1.196 0.538-1.196 1.215v10.398c0 0.677 0.555 1.233 1.231 1.233h4.056zM51.363 20.354h-2.774v-7.812h2.774c2.167 0 3.935 1.736 3.918 3.906 0 2.17-1.734 3.906-3.918 3.906zM75.965 22.871v-2.517h-7.437v-2.656h6.917v-2.517h-6.917v-2.639h7.437v-2.517h-8.65c-0.711 0-1.3 0.59-1.3 1.285v10.277c0 0.694 0.589 1.285 1.3 1.285h8.65zM95.159 22.871v-2.517h-7.437v-2.656h6.917v-2.517h-6.917v-2.639h7.437v-2.517h-8.65c-0.711 0-1.3 0.59-1.3 1.285v10.277c0 0.694 0.589 1.285 1.3 1.285h8.65zM106.916 22.871v-3.489h3.259c2.6 0 4.681-2.066 4.681-4.652s-2.080-4.704-4.681-4.704h-4.472c-0.711 0-1.3 0.59-1.3 1.285v11.562h2.514zM110.175 16.864h-3.259v-4.323h3.259c1.196 0 2.167 0.989 2.167 2.187 0 1.18-0.953 2.135-2.167 2.135zM132.471 22.871v-2.517h-7.246v-10.329h-2.514v11.562c0 0.694 0.589 1.285 1.3 1.285h8.46zM141.922 22.871l3.554-8.315 3.519 8.315h2.808l-5.218-12.256c-0.191-0.451-0.589-0.746-1.092-0.746-0.52 0-0.953 0.295-1.161 0.746l-5.218 12.256h2.808zM166.143 22.871c2.115 0 3.831-1.736 3.831-3.854 0-1.233-0.589-2.17-1.508-2.725 0.693-0.556 1.109-1.389 1.109-2.43 0-2.118-1.716-3.836-3.831-3.836h-5.131c-0.711 0-1.3 0.59-1.3 1.285v10.277c0 0.694 0.589 1.285 1.3 1.285h5.53zM165.744 15.18h-3.918v-2.639h3.918c0.728 0 1.317 0.59 1.317 1.319s-0.589 1.319-1.317 1.319zM166.143 20.354h-4.316v-2.656h4.316c0.728 0 1.317 0.59 1.317 1.319s-0.589 1.337-1.317 1.337zM184.141 23.062c3.242 0 5.859-1.528 5.859-3.993 0-3.177-3.172-3.663-5.79-3.923l-0.096-0.010c-0.032-0.003-0.064-0.007-0.097-0.010l-0.341-0.037c-1.3-0.146-2.586-0.368-2.586-1.314 0-1.233 1.265-1.58 3.172-1.58 1.439 0 2.947 0.33 4.351 0.903l1.023-2.257c-1.595-0.66-3.519-1.042-5.374-1.042-3.224 0-5.755 1.493-5.755 3.975 0 2.625 2.3 3.241 4.474 3.535l0.155 0.020c0.361 0.047 0.717 0.086 1.057 0.124 1.786 0.191 3.207 0.382 3.207 1.614 0 0.92-1.092 1.476-3.259 1.476-1.699 0-3.38-0.399-4.923-1.146l-1.040 2.274c1.803 0.92 3.831 1.389 5.963 1.389z"></path><g id="Symbols" stroke="none" stroke-width="1" fill="none" fill-rule="evenodd" stroke-linecap="square" stroke-linejoin="round"><g class="icon-logo__mark" transform="translate(2.000000, -8.000000)" stroke-width="2.4950495"><g id="Group-4" transform="translate(-0.000000, 10.000000)"><path d="M0.0944982664,14 L0.0944982664,28 C11.1957858,28 16.7515554,28 16.761807,28 C24.4465818,27.957183 30.6631355,21.7055883 30.6631355,14 C30.6631355,6.2680135 24.4039149,0 16.6827749,0 C11.5353482,0 5.97442323,0 0,0" id="Oval-Copy"></path><path d="M6.43136978,14 C6.43136978,18.9183811 6.43136978,21.3775717 6.43136978,21.3775717 C11.6407004,21.3775717 14.6455706,21.3775717 15.4459803,21.3775717 C19.339267,21.3775717 22.4953995,18.2170056 22.4953995,14.3182497 C22.4953995,10.4194938 19.339267,7.25892762 15.4459803,7.25892762 C12.8504559,7.25892762 7.70179577,7.25892762 2.27373675e-13,7.25892762" id="Oval-Copy-2"></path></g></g></g></svg>