<?xml version="1.0" encoding="utf-8"?>
<!-- Generator: Adobe Illustrator 19.2.1, SVG Export Plug-In . SVG Version: 6.00 Build 0)  -->
<svg version="1.1" id="layer" xmlns="http://www.w3.org/2000/svg" xmlns:xlink="http://www.w3.org/1999/xlink" x="0px" y="0px"
	 viewBox="0 0 652 652" style="enable-background:new 0 0 652 652;" xml:space="preserve">
<style type="text/css">
	.st0{fill:#1F4FA2;}
</style>
<path class="st0" d="M594.8,367.9L594.8,367.9c0-6.7,5.4-11.7,12.1-11.7c6.7,0,12.1,5,12.1,11.7c0,7.1-5.4,12.1-12.1,12.1
	C600.2,380,594.8,375,594.8,367.9 M606.9,382.5L606.9,382.5c8.3,0,15-6.3,15-14.6c0-7.9-6.7-14.2-15-14.2c-8.3,0-15,6.3-15,14.2
	C591.9,376.2,598.5,382.5,606.9,382.5 M603.5,369.1L603.5,369.1h3.3l4.2,7.1h3.3l-5-7.1c2.5-0.4,4.2-1.7,4.2-4.6
	c0-3.3-1.7-4.6-5.8-4.6H601v16.3h2.5V369.1z M603.5,367.1L603.5,367.1v-5h3.7c1.7,0,3.8,0.4,3.8,2.5c0,2.5-2.1,2.5-4.2,2.5H603.5z"
	/>
<path class="st0" d="M152.3,377.9L152.3,377.9c2.9-0.4,5.4-1.7,7.5-2.9c2.5-1.7,5.8-5,10-10.4c2.1-2.1,4.6-5.4,7.5-9.6
	c2.9-4.2,5.4-7.1,7.5-9.6L161,309c-1.7-2.9-3.3-4.6-4.2-5.4c-1.3-0.8-2.9-1.3-5.4-1.7v-4.2h45.8v4.2c-4.2,0.8-6.7,1.3-7.1,1.3
	c-0.8,0.4-1.3,1.3-1.3,2.1c0,1.7,1.7,4.6,4.6,9.6c3.3,5,5.8,8.8,8.3,12.1c6.3-7.9,10.4-12.9,11.7-15.4c1.7-2.1,2.1-3.8,2.1-5
	c0-2.1-0.4-3.3-2.1-3.8c-1.2-0.4-3.7-0.8-7.1-0.8v-4.2h30.4v4.2c-2.1,0.4-4.2,0.8-5.4,1.7c-2.5,1.3-5,2.9-7.1,5.4l-18.8,23.4
	l27.1,41.8c0.8,0.8,1.2,1.7,2.1,2.1c0.8,0.4,2.1,1.3,3.3,1.7v4.2h-44.2v-4.2c2.9,0,4.6-0.4,6.2-0.8c1.7-0.4,2.1-1.7,2.1-2.9
	c0-1.3-0.4-2.9-1.7-5c-0.8-1.7-2.1-3.3-3.7-5.8c-0.8-1.7-2.1-3.3-3.8-5.8s-2.9-4.6-4.2-6.7c-4.2,5-7.1,8.8-9.2,11.3
	c-3.7,5.8-5.8,9.6-5.8,10.9c0,2.1,0.8,3.3,2.1,3.8c1.7,0.8,4.2,1.3,7.1,1.3v4.2h-30.8V377.9z"/>
<path class="st0" d="M434.4,301.5L434.4,301.5c-9.2-0.4-12.5,15.9-12.5,37.2c0,16.7,3.3,36.3,12.5,36.3c10.4,0,14.2-17.5,14.2-36.3
	C448.1,319.5,445.6,301.9,434.4,301.5 M434.4,294.8L434.4,294.8c25,0,40.8,20.5,41.2,42.6c0.8,23-15.4,45.5-41.2,45.5
	c-25,0-39.6-23.4-39.6-45.5C394.8,315.3,408.9,294.4,434.4,294.8"/>
<path class="st0" d="M22.3,258.5L22.3,258.5h112.5v37.6c-9.2,0-5.8-11.3-17.1-22.5c-6.2-6.3-17.1-9.6-37.1-8.8
	c-7.5,0.4-9.6,5.4-9.6,12.1V317c16.7-0.4,28.8-4.6,30.4-26.7h5.4v59.7h-5.4c-1.7-13.8-4.2-26.3-25.4-28h-5v40.9
	c0.8,5-2.5,11.7,12.9,12.9c21.3,1.3,41.7-8.4,54.6-33.4h6.2l-10.4,39.7H22.3l-0.4-5.4c5-0.8,15-1.7,15-7.9v-93.9
	c0-10-7.5-10-14.6-10V258.5z"/>
<path class="st0" d="M276.9,268.1L276.9,268.1h6.7v29.6H301v7.5h-17.9V360c0,3.8,1.2,8.8,5.8,8.8c6.2,0,14.2-8.8,14.2-8.8
	s2.9,1.3,2.9,1.7c-1.3,9.2-10,21.3-28.3,21.3c-12.5,0-21.7-9.6-21.7-20.5v-57.2h-10.4v-7.5C261,293.2,268.1,281.9,276.9,268.1"/>
<path class="st0" d="M549.8,294.8L549.8,294.8c15,0,23.7,12.9,23.7,25.1v48c0,5.4,4.6,9.2,11.3,10.4v3.8h-47.9v-3.3
	c6.3-1.7,12.5-5,12.5-10.9v-48c0-6.3-4.6-12.5-12.5-12.5c-9.6,0-17.1,6.7-17.1,14.2v46.3c0,5,3.3,9.2,9.2,10.4v3.8h-46.3v-4.2
	c5.4-1.3,10-4.2,10-9.6v-54.7c0-7.1-2.9-10.4-9.2-11.7v-4.2h36.3c0,3.8,0,9.2,0.4,9.6C526.4,297.7,537.7,294.8,549.8,294.8"/>
<path class="st0" d="M375.6,294.8L375.6,294.8c9.6,0.8,16.7,6.7,16.7,14.2c0,5.8-5,11.7-12.1,11.7c-10.4,0-9.6-9.6-16.7-10
	c-2.9,0-7.5,1.3-10,7.1c-1.7,4.2-2.1,7.9-2.1,10.4v40.5c0,3.8,2.9,7.5,9.6,9.2v4.2h-46.7v-3.8c3.3-0.8,6.7-2.1,10-6.3
	c0.8-1.7,0.8-5,0.8-5l0.4-54.7c0-5.4-5-9.2-11.3-10.9l0.4-3.8h36.7c0,5,0,6.7,0.4,11.3C357.3,301.9,364.4,294,375.6,294.8"/>
</svg>
