<?xml version="1.0" encoding="utf-8"?>
<!-- Generator: Adobe Illustrator 27.5.0, SVG Export Plug-In . SVG Version: 6.00 Build 0)  -->
<svg version="1.1" id="Layer_1" xmlns="http://www.w3.org/2000/svg" xmlns:xlink="http://www.w3.org/1999/xlink" x="0px" y="0px"
	 viewBox="0 0 212.7 57" style="enable-background:new 0 0 212.7 57;" xml:space="preserve">
<style type="text/css">
	.st0{fill:#231F20;}
	.st1{fill:#00B5E2;}
	.st2{fill:#E4002B;}
</style>
<g>
	<g>
		<path class="st0" d="M101.4,22.1l0.7-1.6c0.8,0.5,1.9,0.9,2.9,0.9c1.2,0,1.7-0.4,1.7-1c0-1.7-5.2-0.5-5.2-3.8
			c0-1.5,1.2-2.8,3.8-2.8c1.1,0,2.3,0.3,3.1,0.8l-0.6,1.6c-0.8-0.5-1.7-0.7-2.5-0.7c-1.2,0-1.7,0.5-1.7,1c0,1.6,5.2,0.5,5.2,3.8
			c0,1.5-1.2,2.8-3.8,2.8C103.6,23.2,102.2,22.7,101.4,22.1z"/>
		<path class="st0" d="M110.1,14.1c0-0.6,0.5-1.1,1.2-1.1s1.2,0.5,1.2,1.1c0,0.7-0.5,1.1-1.2,1.1C110.6,15.2,110.1,14.7,110.1,14.1z
			 M110.3,16.2h2V23h-2V16.2z"/>
		<path class="st0" d="M121.4,19.1V23h-2v-3.6c0-1.1-0.5-1.6-1.4-1.6c-1,0-1.6,0.6-1.6,1.8V23h-2v-6.8h1.9V17
			c0.5-0.6,1.3-0.9,2.3-0.9C120.1,16.1,121.4,17,121.4,19.1z"/>
		<path class="st0" d="M130.2,16.2v5.7c0,2.5-1.4,3.7-3.8,3.7c-1.3,0-2.6-0.3-3.4-0.9l0.8-1.4c0.6,0.5,1.5,0.8,2.4,0.8
			c1.4,0,2-0.6,2-1.9v-0.3c-0.5,0.6-1.3,0.9-2.2,0.9c-1.9,0-3.4-1.3-3.4-3.3s1.5-3.3,3.4-3.3c1,0,1.7,0.3,2.3,1v-0.9h1.9V16.2z
			 M128.3,19.4c0-1-0.8-1.7-1.8-1.7s-1.8,0.7-1.8,1.7s0.8,1.7,1.8,1.7S128.3,20.4,128.3,19.4z"/>
		<path class="st0" d="M138.3,19.1V23h-1.9v-0.9c-0.4,0.6-1.1,1-2.1,1c-1.6,0-2.6-0.9-2.6-2.1s0.9-2,2.9-2h1.6
			c0-0.9-0.5-1.3-1.6-1.3c-0.7,0-1.5,0.2-2,0.6l-0.7-1.4c0.8-0.5,1.9-0.8,3-0.8C137,16.1,138.3,17,138.3,19.1z M136.3,20.9v-0.7
			h-1.4c-0.9,0-1.2,0.3-1.2,0.8s0.4,0.8,1.1,0.8C135.5,21.8,136,21.5,136.3,20.9z"/>
		<path class="st0" d="M147.6,19.6c0,2.1-1.5,3.5-3.4,3.5c-0.9,0-1.6-0.3-2.1-0.8v3.2h-2v-9.3h1.9V17c0.5-0.6,1.2-0.9,2.1-0.9
			C146.1,16.1,147.6,17.4,147.6,19.6z M145.6,19.6c0-1.2-0.8-1.9-1.7-1.9c-1,0-1.7,0.7-1.7,1.9s0.8,1.9,1.7,1.9
			C144.9,21.5,145.6,20.8,145.6,19.6z"/>
		<path class="st0" d="M148.8,19.6c0-2.1,1.6-3.5,3.8-3.5s3.8,1.5,3.8,3.5s-1.6,3.5-3.8,3.5S148.8,21.7,148.8,19.6z M154.3,19.6
			c0-1.2-0.8-1.9-1.7-1.9s-1.8,0.7-1.8,1.9s0.8,1.9,1.8,1.9S154.3,20.8,154.3,19.6z"/>
		<path class="st0" d="M162,16.1v1.8c-0.2,0-0.3,0-0.4,0c-1.1,0-1.8,0.6-1.8,1.9V23h-2v-6.8h1.9v0.9C160.1,16.4,160.9,16.1,162,16.1
			z"/>
		<path class="st0" d="M170,20.2h-5.2c0.2,0.9,0.9,1.4,2,1.4c0.7,0,1.2-0.2,1.7-0.7l1.1,1.1c-0.6,0.7-1.6,1.1-2.8,1.1
			c-2.4,0-3.9-1.5-3.9-3.5s1.6-3.5,3.7-3.5c2,0,3.6,1.3,3.6,3.5C170,19.8,170,20,170,20.2z M164.8,19h3.4c-0.1-0.9-0.8-1.4-1.7-1.4
			S164.9,18.1,164.8,19z"/>
		<path class="st0" d="M102,29.9h2.1v8.9H102V29.9z"/>
		<path class="st0" d="M113,34.9v3.9h-2v-3.6c0-1.1-0.5-1.6-1.4-1.6c-1,0-1.6,0.6-1.6,1.8v3.4h-2V32h1.9v0.8
			c0.5-0.6,1.3-0.9,2.3-0.9C111.8,31.8,113,32.8,113,34.9z"/>
		<path class="st0" d="M114.4,38.2l0.7-1.4c0.6,0.4,1.5,0.7,2.4,0.7s1.3-0.2,1.3-0.6c0-1.1-4.1,0-4.1-2.7c0-1.3,1.2-2.2,3.2-2.2
			c0.9,0,2,0.2,2.6,0.6l-0.7,1.4c-0.7-0.4-1.3-0.5-2-0.5c-0.9,0-1.3,0.3-1.3,0.6c0,1.2,4.1,0,4.1,2.7c0,1.3-1.2,2.2-3.2,2.2
			C116.2,38.9,115,38.6,114.4,38.2z"/>
		<path class="st0" d="M126.5,38.5c-0.4,0.3-1,0.4-1.6,0.4c-1.6,0-2.6-0.8-2.6-2.5v-2.8h-1.1v-1.5h1.1v-1.7h2v1.7h1.7v1.5h-1.7v2.8
			c0,0.6,0.3,0.9,0.9,0.9c0.3,0,0.6-0.1,0.8-0.3L126.5,38.5z"/>
		<path class="st0" d="M127.5,29.9c0-0.6,0.5-1.1,1.2-1.1c0.7,0,1.2,0.5,1.2,1.1c0,0.7-0.5,1.1-1.2,1.1S127.5,30.5,127.5,29.9z
			 M127.7,31.9h2v6.8h-2V31.9z"/>
		<path class="st0" d="M136.3,38.5c-0.4,0.3-1,0.4-1.6,0.4c-1.6,0-2.6-0.8-2.6-2.5v-2.8H131v-1.5h1.1v-1.7h2v1.7h1.7v1.5h-1.7v2.8
			c0,0.6,0.3,0.9,0.9,0.9c0.3,0,0.6-0.1,0.8-0.3L136.3,38.5z"/>
		<path class="st0" d="M144.4,31.9v6.8h-1.9V38c-0.5,0.6-1.3,0.9-2.1,0.9c-1.7,0-2.9-1-2.9-3.1v-3.9h2v3.6c0,1.1,0.5,1.7,1.4,1.7
			s1.6-0.6,1.6-1.8V32h1.9V31.9z"/>
		<path class="st0" d="M150.8,38.5c-0.4,0.3-1,0.4-1.6,0.4c-1.6,0-2.6-0.8-2.6-2.5v-2.8h-1.1v-1.5h1.1v-1.7h2v1.7h1.7v1.5h-1.7v2.8
			c0,0.6,0.3,0.9,0.9,0.9c0.3,0,0.6-0.1,0.8-0.3L150.8,38.5z"/>
		<path class="st0" d="M158.5,35.9h-5.2c0.2,0.9,0.9,1.4,2,1.4c0.7,0,1.2-0.2,1.7-0.7l1.1,1.1c-0.6,0.7-1.6,1.1-2.8,1.1
			c-2.4,0-3.9-1.5-3.9-3.5s1.6-3.5,3.7-3.5c2,0,3.6,1.3,3.6,3.5C158.6,35.5,158.5,35.8,158.5,35.9z M153.3,34.8h3.4
			c-0.1-0.9-0.8-1.4-1.7-1.4C154.1,33.3,153.5,33.9,153.3,34.8z"/>
		<path class="st0" d="M163.2,35.4c0-2.1,1.6-3.5,3.8-3.5s3.8,1.5,3.8,3.5c0,2.1-1.6,3.5-3.8,3.5S163.2,37.4,163.2,35.4z
			 M168.7,35.4c0-1.2-0.8-1.9-1.7-1.9s-1.8,0.7-1.8,1.9s0.8,1.9,1.8,1.9S168.7,36.5,168.7,35.4z"/>
		<path class="st0" d="M174.4,32.1h1.8v1.5h-1.8v5.2h-2v-5.2h-1v-1.5h1.1v-0.3c0-1.5,0.9-2.5,2.6-2.5c0.6,0,1.1,0.1,1.5,0.4
			l-0.5,1.4c-0.2-0.2-0.5-0.2-0.8-0.2c-0.6,0-0.9,0.3-0.9,1L174.4,32.1L174.4,32.1z"/>
		<path class="st0" d="M110.1,54.6v-5.3l-2.6,4.4h-0.9l-2.6-4.3v5.2h-1.9v-8.9h1.7l3.3,5.5l3.3-5.5h1.7v8.9
			C112.1,54.6,110.1,54.6,110.1,54.6z"/>
		<path class="st0" d="M120,50.7v3.9h-1.9v-0.9c-0.4,0.6-1.1,1-2.1,1c-1.6,0-2.6-0.9-2.6-2.1c0-1.2,0.9-2,2.9-2h1.6
			c0-0.9-0.5-1.3-1.6-1.3c-0.7,0-1.5,0.2-2,0.6l-0.7-1.4c0.8-0.5,1.9-0.8,3-0.8C118.8,47.6,120,48.6,120,50.7z M118,52.4v-0.7h-1.4
			c-0.9,0-1.2,0.3-1.2,0.8s0.4,0.8,1.1,0.8C117.2,53.3,117.8,53,118,52.4z"/>
		<path class="st0" d="M128.8,50.6v3.9h-2v-3.6c0-1.1-0.5-1.6-1.4-1.6c-1,0-1.6,0.6-1.6,1.8v3.4h-2v-6.8h1.9v0.8
			c0.5-0.6,1.3-0.9,2.3-0.9C127.6,47.6,128.8,48.6,128.8,50.6z"/>
		<path class="st0" d="M136.7,50.7v3.9h-1.9v-0.9c-0.4,0.6-1.1,1-2.1,1c-1.6,0-2.6-0.9-2.6-2.1c0-1.2,0.9-2,2.9-2h1.6
			c0-0.9-0.5-1.3-1.6-1.3c-0.7,0-1.5,0.2-2,0.6l-0.7-1.4c0.8-0.5,1.9-0.8,3-0.8C135.5,47.6,136.7,48.6,136.7,50.7z M134.7,52.4v-0.7
			h-1.4c-0.9,0-1.2,0.3-1.2,0.8s0.4,0.8,1.1,0.8C133.9,53.3,134.5,53,134.7,52.4z"/>
		<path class="st0" d="M145.5,47.7v5.7c0,2.5-1.4,3.7-3.8,3.7c-1.3,0-2.6-0.3-3.4-0.9l0.8-1.4c0.6,0.5,1.5,0.8,2.4,0.8
			c1.4,0,2-0.6,2-1.9v-0.3c-0.5,0.6-1.3,0.9-2.2,0.9c-1.9,0-3.4-1.3-3.4-3.3s1.5-3.3,3.4-3.3c1,0,1.7,0.3,2.3,1v-0.9L145.5,47.7
			L145.5,47.7z M143.6,50.9c0-1-0.8-1.7-1.8-1.7s-1.8,0.7-1.8,1.7s0.8,1.7,1.8,1.7S143.6,51.9,143.6,50.9z"/>
		<path class="st0" d="M154.1,51.7h-5.2c0.2,0.9,0.9,1.4,2,1.4c0.7,0,1.2-0.2,1.7-0.7l1.1,1.1c-0.6,0.7-1.6,1.1-2.8,1.1
			c-2.4,0-3.9-1.5-3.9-3.5s1.6-3.5,3.7-3.5c2,0,3.6,1.3,3.6,3.5C154.1,51.3,154.1,51.5,154.1,51.7z M148.9,50.5h3.4
			c-0.1-0.9-0.8-1.4-1.7-1.4S149,49.7,148.9,50.5z"/>
		<path class="st0" d="M167,50.6v3.9h-2v-3.6c0-1.1-0.5-1.6-1.3-1.6c-0.9,0-1.5,0.6-1.5,1.8v3.4h-2v-3.6c0-1.1-0.5-1.6-1.3-1.6
			c-0.9,0-1.5,0.6-1.5,1.8v3.4h-2v-6.8h1.9v0.8c0.5-0.6,1.3-0.9,2.1-0.9c1,0,1.8,0.4,2.3,1.1c0.5-0.7,1.4-1.1,2.5-1.1
			C165.9,47.6,167,48.6,167,50.6z"/>
		<path class="st0" d="M175.5,51.7h-5.2c0.2,0.9,0.9,1.4,2,1.4c0.7,0,1.2-0.2,1.7-0.7l1.1,1.1c-0.6,0.7-1.6,1.1-2.8,1.1
			c-2.4,0-3.9-1.5-3.9-3.5s1.6-3.5,3.7-3.5c2,0,3.6,1.3,3.6,3.5C175.5,51.3,175.5,51.5,175.5,51.7z M170.3,50.5h3.4
			c-0.1-0.9-0.8-1.4-1.7-1.4S170.4,49.7,170.3,50.5z"/>
		<path class="st0" d="M183.9,50.6v3.9h-2v-3.6c0-1.1-0.5-1.6-1.4-1.6c-1,0-1.6,0.6-1.6,1.8v3.4h-2v-6.8h1.9v0.8
			c0.5-0.6,1.3-0.9,2.3-0.9C182.7,47.6,183.9,48.6,183.9,50.6z"/>
		<path class="st0" d="M190.2,54.2c-0.4,0.3-1,0.4-1.6,0.4c-1.6,0-2.6-0.8-2.6-2.5v-2.8h-1.1v-1.5h1.1v-1.7h2v1.7h1.7v1.5H188v2.8
			c0,0.6,0.3,0.9,0.9,0.9c0.3,0,0.6-0.1,0.8-0.3L190.2,54.2z"/>
	</g>
	<g>
		<g>
			<polygon class="st1" points="20.3,57.1 36.5,57.1 28.4,40.9 			"/>
			<polygon class="st2" points="42,13.8 35.2,27.4 50.1,57.1 63.6,57.1 			"/>
		</g>
		<g>
			<polygon class="st1" points="71.7,13.8 50.1,57.1 63.6,57.1 78.4,27.4 			"/>
			<polygon class="st2" points="78.4,27.4 71.7,40.9 79.8,57.1 93.3,57.1 			"/>
		</g>
	</g>
	<path class="st2" d="M43.2,5.4c0,3-2.4,5.4-5.4,5.4s-5.4-2.4-5.4-5.4S34.8,0,37.8,0C40.7,0,43.2,2.4,43.2,5.4"/>
	<g>
		<path class="st2" d="M2.8,21.3c-3.4,6.7-0.7,14.8,6,18.2l12.1-24.2C14.2,11.9,6.1,14.6,2.8,21.3z"/>
		<path class="st1" d="M18.8,49.6c3.3-6.7,0.6-14.8-6-18.1L0.7,55.7C7.3,59,15.5,56.3,18.8,49.6z"/>
	</g>
</g>
</svg>
