<?xml version="1.0" encoding="UTF-8"?><svg id="uob-logo_214x60px_Chinese_UOB_Logo.svg" xmlns="http://www.w3.org/2000/svg" viewBox="0 0 214 60"><defs><style>.cls-1{fill:#f5333f;}.cls-2{fill:#005cb9;}</style></defs><path class="cls-1" d="M59.29,26.68c-.32,0-.62-.01-.93-.01h-6.29V1.67c.02-1.49-1.87-1.67-3.01-1.67h-.61c-1.14,0-3.02,.18-3,1.67,0,.32,0,.62,0,.94V26.67h-5.15V1.67c.02-1.49-1.87-1.67-3.01-1.67h-.61c-1.14,0-3.02,.18-3,1.67,0,.32-.01,.62-.01,.94V26.67h-5.15V1.67c.02-1.49-1.87-1.67-3.01-1.67h-.61c-1.14,0-3.02,.18-3.01,1.67,0,.32,0,.62,0,.94V26.67h-5.15V1.67c.02-1.49-1.87-1.67-3.01-1.67h-.61c-1.14,0-3.02,.18-3,1.67,0,.32-.01,.62-.01,.94V26.67H3.78s-.07,0-.15,.01h-.78c-1.49-.02-1.65,1.87-1.65,3.02v.62c0,.11,0,.2,.01,.33,.14,2.7,1.15,2.68,1.63,2.68,.25,0,.51,0,.81,0h6.42v24.07s0,.07,.01,.15v.79c-.02,1.5,1.86,1.66,3,1.66h.61c.11,0,.21,0,.34-.02,2.69-.14,2.67-1.16,2.67-1.64,0-.25,0-.52,0-.81v-24.19h5.15v24.07s0,.07,0,.15v.79c-.01,1.5,1.87,1.66,3.01,1.66h.61c.11,0,.2,0,.34-.02,2.69-.14,2.67-1.16,2.67-1.64,0-.25,0-.52,0-.81v-24.19h5.15v24.07s0,.07,.01,.15v.79c-.02,1.5,1.86,1.66,3,1.66h.61c.11,0,.2,0,.33-.02,2.7-.14,2.67-1.16,2.67-1.64,0-.25,0-.52,0-.81v-24.19h5.15v24.07s0,.07,0,.15v.79c-.02,1.5,1.87,1.66,3,1.66h.61c.11,0,.2,0,.34-.02,2.69-.14,2.67-1.16,2.67-1.64,0-.25,0-.52,0-.81v-24.19h7.23c1.49,.02,1.66-1.88,1.66-3.02v-.62c0-1.15-.17-3.04-1.66-3.02Z"/><path class="cls-2" d="M143.29,4.4c-15.89,0-22.98,7.86-22.98,25.47s7.38,25.63,22.57,25.74h.74c15.22-.08,22.62-8.5,22.62-25.74s-7.08-25.47-22.95-25.47Zm.04,43.66h-.12c-9.12,0-12.68-5.12-12.68-18.27s3.41-17.84,12.58-17.84h.3c9.18,0,12.59,4.83,12.59,17.84s-3.55,18.27-12.67,18.27Z"/><path class="cls-2" d="M79.48,51.71c3.22,2.5,7.61,3.56,14.66,3.56h.45c7.11,0,11.51-1.06,14.7-3.56,4.64-3.54,5.42-7.71,5.42-15.72V7.27c.01-.42,.02-.94-.44-1.41-.73-.74-2.36-1.12-4.85-1.12s-4.08,.38-4.81,1.12c-.47,.47-.46,1-.45,1.42v30.02c0,5,0,6.04-2.21,7.87-2.04,1.67-5.12,1.88-7.57,1.88s-5.53-.21-7.57-1.88c-2.2-1.82-2.2-2.84-2.2-7.76V7.27c0-.42,.01-.94-.45-1.42-.73-.74-2.35-1.12-4.82-1.12s-4.1,.38-4.83,1.12c-.47,.47-.46,1-.45,1.42v28.73c0,8,.78,12.17,5.42,15.71Z"/><path class="cls-2" d="M205.93,7.72c-2.63-1.96-5.76-2.65-11.97-2.65h-20.43c-.93,0-1.68,.76-1.68,1.68V53.24c0,.94,.76,1.7,1.68,1.7h21.43c5.82,0,9.88-.19,13.27-2.75,3.79-2.95,4.58-7.78,4.58-11.32,0-4.67-1.56-8.36-4.39-10.4-1.23-.92-2.68-1.47-4.07-1.96l-.93-.33,.89-.43c4.17-2,5.7-4.78,5.64-10.26-.04-2.57-.61-7.25-4.02-9.79Zm-23.68,4.32h11.41c5.91,0,6.38,3.01,6.38,6.94,0,4.7-2.15,6.7-7.17,6.7h-10.62V12.04Zm11.18,35.76h-11.19v-15.05h12c6.65,0,7.99,2.91,7.99,7.6,0,6.32-2.31,7.45-8.8,7.45Z"/></svg>